<svg width="61" height="15" viewBox="0 0 61 15" fill="none" xmlns="http://www.w3.org/2000/svg">
<path d="M3.87751 6.10714H5.05608V7.28571H3.87751V6.10714ZM3.87751 4.92857H5.05608V6.10714H3.87751V4.92857ZM5.05608 4.92857H6.23465V6.10714H5.05608V4.92857ZM5.05608 6.10714H6.23465V7.28571H5.05608V6.10714ZM5.05608 7.28571H6.23465V8.46429H5.05608V7.28571ZM3.87751 7.28571H5.05608V8.46429H3.87751V7.28571ZM3.87751 2.57143H5.05608V3.75H3.87751V2.57143ZM3.87751 3.75H5.05608V4.92857H3.87751V3.75ZM2.69894 4.92857H3.87751V6.10714H2.69894V4.92857ZM2.69894 3.75H3.87751V4.92857H2.69894V3.75ZM2.69894 2.57143H3.87751V3.75H2.69894V2.57143ZM0.341797 0.214286H1.52037V1.39286H0.341797V0.214286ZM1.52037 0.214286H2.69894V1.39286H1.52037V0.214286ZM2.69894 0.214286H3.87751V1.39286H2.69894V0.214286ZM2.69894 1.39286H3.87751V2.57143H2.69894V1.39286ZM1.52037 1.39286H2.69894V2.57143H1.52037V1.39286ZM0.341797 1.39286H1.52037V2.57143H0.341797V1.39286ZM0.341797 2.57143H1.52037V3.75H0.341797V2.57143ZM1.52037 2.57143H2.69894V3.75H1.52037V2.57143ZM1.52037 3.75H2.69894V4.92857H1.52037V3.75ZM1.52037 4.92857H2.69894V6.10714H1.52037V4.92857ZM0.341797 4.92857H1.52037V6.10714H0.341797V4.92857ZM0.341797 3.75H1.52037V4.92857H0.341797V3.75ZM0.341797 6.10714H1.52037V7.28571H0.341797V6.10714ZM1.52037 6.10714H2.69894V7.28571H1.52037V6.10714ZM1.52037 7.28571H2.69894V8.46429H1.52037V7.28571ZM1.52037 8.46429H2.69894V9.64286H1.52037V8.46429ZM1.52037 9.64286H2.69894V10.8214H1.52037V9.64286ZM1.52037 10.8214H2.69894V12H1.52037V10.8214ZM0.341797 10.8214H1.52037V12H0.341797V10.8214ZM0.341797 9.64286H1.52037V10.8214H0.341797V9.64286ZM0.341797 8.46429H1.52037V9.64286H0.341797V8.46429ZM0.341797 7.28571H1.52037V8.46429H0.341797V7.28571ZM5.05608 8.46429H6.23465V9.64286H5.05608V8.46429ZM5.05608 9.64286H6.23465V10.8214H5.05608V9.64286ZM6.23465 8.46429H7.41323V9.64286H6.23465V8.46429ZM6.23465 7.28571H7.41323V8.46429H6.23465V7.28571ZM6.23465 9.64286H7.41323V10.8214H6.23465V9.64286ZM6.23465 10.8214H7.41323V12H6.23465V10.8214ZM7.41323 10.8214H8.5918V12H7.41323V10.8214ZM8.5918 10.8214H9.77037V12H8.5918V10.8214ZM8.5918 9.64286H9.77037V10.8214H8.5918V9.64286ZM8.5918 8.46429H9.77037V9.64286H8.5918V8.46429ZM7.41323 8.46429H8.5918V9.64286H7.41323V8.46429ZM7.41323 9.64286H8.5918V10.8214H7.41323V9.64286ZM7.41323 7.28571H8.5918V8.46429H7.41323V7.28571ZM8.5918 6.10714H9.77037V7.28571H8.5918V6.10714ZM8.5918 4.92857H9.77037V6.10714H8.5918V4.92857ZM8.5918 7.28571H9.77037V8.46429H8.5918V7.28571ZM7.41323 6.10714H8.5918V7.28571H7.41323V6.10714ZM7.41323 4.92857H8.5918V6.10714H7.41323V4.92857ZM7.41323 3.75H8.5918V4.92857H7.41323V3.75ZM8.5918 3.75H9.77037V4.92857H8.5918V3.75ZM8.5918 2.57143H9.77037V3.75H8.5918V2.57143ZM7.41323 0.214286H8.5918V1.39286H7.41323V0.214286ZM8.5918 0.214286H9.77037V1.39286H8.5918V0.214286ZM8.5918 1.39286H9.77037V2.57143H8.5918V1.39286ZM7.41323 1.39286H8.5918V2.57143H7.41323V1.39286ZM7.41323 2.57143H8.5918V3.75H7.41323V2.57143ZM19.2051 10.8214H18.0265V9.64286H19.2051V10.8214ZM19.2051 12H18.0265V10.8214H19.2051V12ZM18.0265 12H16.8479V10.8214H18.0265V12ZM18.0265 10.8214H16.8479V9.64286H18.0265V10.8214ZM18.0265 9.64286H16.8479V8.46429H18.0265V9.64286ZM18.0265 8.46429H16.8479V7.28571H18.0265V8.46429ZM18.0265 7.28571H16.8479V6.10714H18.0265V7.28571ZM19.2051 7.28571H18.0265V6.10714H19.2051V7.28571ZM19.2051 8.46429H18.0265V7.28571H19.2051V8.46429ZM19.2051 9.64286H18.0265V8.46429H19.2051V9.64286ZM19.2051 6.10714H18.0265V4.92857H19.2051V6.10714ZM18.0265 6.10714H16.8479V4.92857H18.0265V6.10714ZM18.0265 4.92857H16.8479V3.75H18.0265V4.92857ZM18.0265 3.75H16.8479V2.57143H18.0265V3.75ZM19.2051 3.75H18.0265V2.57143H19.2051V3.75ZM19.2051 4.92857H18.0265V3.75H19.2051V4.92857ZM13.3122 3.75H12.1336V2.57143H13.3122V3.75ZM12.1336 3.75H10.9551V2.57143H12.1336V3.75ZM12.1336 4.92857H10.9551V3.75H12.1336V4.92857ZM12.1336 6.10714H10.9551V4.92857H12.1336V6.10714ZM12.1336 7.28571H10.9551V6.10714H12.1336V7.28571ZM12.1336 8.46429H10.9551V7.28571H12.1336V8.46429ZM12.1336 9.64286H10.9551V8.46429H12.1336V9.64286ZM12.1336 10.8214H10.9551V9.64286H12.1336V10.8214ZM13.3122 8.46429H12.1336V7.28571H13.3122V8.46429ZM13.3122 7.28571H12.1336V6.10714H13.3122V7.28571ZM13.3122 6.10714H12.1336V4.92857H13.3122V6.10714ZM13.3122 4.92857H12.1336V3.75H13.3122V4.92857ZM13.3122 9.64286H12.1336V8.46429H13.3122V9.64286ZM16.8479 10.8214H15.6694V9.64286H16.8479V10.8214ZM15.6694 10.8214H14.4908V9.64286H15.6694V10.8214ZM14.4908 10.8214H13.3122V9.64286H14.4908V10.8214ZM14.4908 12H13.3122V10.8214H14.4908V12ZM13.3122 12H12.1336V10.8214H13.3122V12ZM13.3122 10.8214H12.1336V9.64286H13.3122V10.8214ZM15.6694 12H14.4908V10.8214H15.6694V12ZM20.3867 0.214286H21.5653V1.39286H20.3867V0.214286ZM21.5653 0.214286H22.7439V1.39286H21.5653V0.214286ZM21.5653 1.39286H22.7439V2.57143H21.5653V1.39286ZM21.5653 2.57143H22.7439V3.75H21.5653V2.57143ZM21.5653 3.75H22.7439V4.92857H21.5653V3.75ZM21.5653 4.92857H22.7439V6.10714H21.5653V4.92857ZM21.5653 6.10714H22.7439V7.28571H21.5653V6.10714ZM20.3867 6.10714H21.5653V7.28571H20.3867V6.10714ZM20.3867 7.28571H21.5653V8.46429H20.3867V7.28571ZM20.3867 8.46429H21.5653V9.64286H20.3867V8.46429ZM20.3867 9.64286H21.5653V10.8214H20.3867V9.64286ZM20.3867 10.8214H21.5653V12H20.3867V10.8214ZM21.5653 10.8214H22.7439V12H21.5653V10.8214ZM21.5653 9.64286H22.7439V10.8214H21.5653V9.64286ZM21.5653 8.46429H22.7439V9.64286H21.5653V8.46429ZM21.5653 7.28571H22.7439V8.46429H21.5653V7.28571ZM20.3867 4.92857H21.5653V6.10714H20.3867V4.92857ZM20.3867 3.75H21.5653V4.92857H20.3867V3.75ZM20.3867 2.57143H21.5653V3.75H20.3867V2.57143ZM20.3867 1.39286H21.5653V2.57143H20.3867V1.39286ZM23.9316 0.214286H25.1102V1.39286H23.9316V0.214286ZM25.1102 0.214286H26.2888V1.39286H25.1102V0.214286ZM25.1102 1.39286H26.2888V2.57143H25.1102V1.39286ZM25.1102 2.57143H26.2888V3.75H25.1102V2.57143ZM25.1102 3.75H26.2888V4.92857H25.1102V3.75ZM25.1102 4.92857H26.2888V6.10714H25.1102V4.92857ZM25.1102 6.10714H26.2888V7.28571H25.1102V6.10714ZM23.9316 6.10714H25.1102V7.28571H23.9316V6.10714ZM23.9316 7.28571H25.1102V8.46429H23.9316V7.28571ZM23.9316 8.46429H25.1102V9.64286H23.9316V8.46429ZM23.9316 9.64286H25.1102V10.8214H23.9316V9.64286ZM23.9316 10.8214H25.1102V12H23.9316V10.8214ZM25.1102 10.8214H26.2888V12H25.1102V10.8214ZM25.1102 9.64286H26.2888V10.8214H25.1102V9.64286ZM25.1102 8.46429H26.2888V9.64286H25.1102V8.46429ZM25.1102 7.28571H26.2888V8.46429H25.1102V7.28571ZM23.9316 4.92857H25.1102V6.10714H23.9316V4.92857ZM23.9316 3.75H25.1102V4.92857H23.9316V3.75ZM23.9316 2.57143H25.1102V3.75H23.9316V2.57143ZM23.9316 1.39286H25.1102V2.57143H23.9316V1.39286ZM27.4766 3.75H28.6551V4.92857H27.4766V3.75ZM27.4766 2.57143H28.6551V3.75H27.4766V2.57143ZM28.6551 2.57143H29.8337V3.75H28.6551V2.57143ZM28.6551 3.75H29.8337V4.92857H28.6551V3.75ZM28.6551 4.92857H29.8337V6.10714H28.6551V4.92857ZM28.6551 6.10714H29.8337V7.28571H28.6551V6.10714ZM28.6551 7.28571H29.8337V8.46429H28.6551V7.28571ZM27.4766 7.28571H28.6551V8.46429H27.4766V7.28571ZM27.4766 6.10714H28.6551V7.28571H27.4766V6.10714ZM27.4766 4.92857H28.6551V6.10714H27.4766V4.92857ZM27.4766 8.46429H28.6551V9.64286H27.4766V8.46429ZM28.6551 8.46429H29.8337V9.64286H28.6551V8.46429ZM28.6551 9.64286H29.8337V10.8214H28.6551V9.64286ZM28.6551 10.8214H29.8337V12H28.6551V10.8214ZM27.4766 10.8214H28.6551V12H27.4766V10.8214ZM27.4766 9.64286H28.6551V10.8214H27.4766V9.64286ZM33.3694 10.8214H34.548V12H33.3694V10.8214ZM34.548 9.64286H35.7266V10.8214H34.548V9.64286ZM34.548 8.46429H35.7266V9.64286H34.548V8.46429ZM34.548 7.28571H35.7266V8.46429H34.548V7.28571ZM34.548 6.10714H35.7266V7.28571H34.548V6.10714ZM34.548 4.92857H35.7266V6.10714H34.548V4.92857ZM34.548 3.75H35.7266V4.92857H34.548V3.75ZM33.3694 6.10714H34.548V7.28571H33.3694V6.10714ZM33.3694 7.28571H34.548V8.46429H33.3694V7.28571ZM33.3694 8.46429H34.548V9.64286H33.3694V8.46429ZM33.3694 9.64286H34.548V10.8214H33.3694V9.64286ZM33.3694 4.92857H34.548V6.10714H33.3694V4.92857ZM29.8337 3.75H31.0123V4.92857H29.8337V3.75ZM31.0123 3.75H32.1908V4.92857H31.0123V3.75ZM32.1908 3.75H33.3694V4.92857H32.1908V3.75ZM32.1908 2.57143H33.3694V3.75H32.1908V2.57143ZM33.3694 2.57143H34.548V3.75H33.3694V2.57143ZM33.3694 3.75H34.548V4.92857H33.3694V3.75ZM31.0123 2.57143H32.1908V3.75H31.0123V2.57143ZM27.4766 0.214286H28.6551V1.39286H27.4766V0.214286ZM28.6551 0.214286H29.8337V1.39286H28.6551V0.214286ZM28.6551 1.39286H29.8337V2.57143H28.6551V1.39286ZM27.4766 1.39286H28.6551V2.57143H27.4766V1.39286ZM29.8337 10.8214H31.0123V12H29.8337V10.8214ZM31.0123 10.8214H32.1908V12H31.0123V10.8214ZM32.1908 10.8214H33.3694V12H32.1908V10.8214ZM32.1908 9.64286H33.3694V10.8214H32.1908V9.64286ZM31.0123 9.64286H32.1908V10.8214H31.0123V9.64286ZM29.8337 9.64286H31.0123V10.8214H29.8337V9.64286ZM36.9082 2.57143H38.0868V3.75H36.9082V2.57143ZM38.0868 2.57143H39.2653V3.75H38.0868V2.57143ZM38.0868 3.75H39.2653V4.92857H38.0868V3.75ZM38.0868 4.92857H39.2653V6.10714H38.0868V4.92857ZM38.0868 6.10714H39.2653V7.28571H38.0868V6.10714ZM36.9082 4.92857H38.0868V6.10714H36.9082V4.92857ZM36.9082 3.75H38.0868V4.92857H36.9082V3.75ZM36.9082 6.10714H38.0868V7.28571H36.9082V6.10714ZM36.9082 7.28571H38.0868V8.46429H36.9082V7.28571ZM38.0868 7.28571H39.2653V8.46429H38.0868V7.28571ZM38.0868 8.46429H39.2653V9.64286H38.0868V8.46429ZM39.2653 8.46429H40.4439V9.64286H39.2653V8.46429ZM39.2653 9.64286H40.4439V10.8214H39.2653V9.64286ZM40.4439 9.64286H41.6225V10.8214H40.4439V9.64286ZM41.6225 9.64286H42.8011V10.8214H41.6225V9.64286ZM41.6225 8.46429H42.8011V9.64286H41.6225V8.46429ZM41.6225 7.28571H42.8011V8.46429H41.6225V7.28571ZM42.8011 7.28571H43.9796V8.46429H42.8011V7.28571ZM42.8011 8.46429H43.9796V9.64286H42.8011V8.46429ZM42.8011 6.10714H43.9796V7.28571H42.8011V6.10714ZM41.6225 6.10714H42.8011V7.28571H41.6225V6.10714ZM41.6225 2.57143H42.8011V3.75H41.6225V2.57143ZM42.8011 2.57143H43.9796V3.75H42.8011V2.57143ZM42.8011 3.75H43.9796V4.92857H42.8011V3.75ZM42.8011 4.92857H43.9796V6.10714H42.8011V4.92857ZM41.6225 3.75H42.8011V4.92857H41.6225V3.75ZM41.6225 4.92857H42.8011V6.10714H41.6225V4.92857ZM40.4439 10.8214H41.6225V12H40.4439V10.8214ZM39.2653 10.8214H40.4439V12H39.2653V10.8214ZM39.2653 12H40.4439V13.1786H39.2653V12ZM38.0868 12H39.2653V13.1786H38.0868V12ZM38.0868 10.8214H39.2653V12H38.0868V10.8214ZM38.0868 13.1786H39.2653V14.3571H38.0868V13.1786ZM36.9082 13.1786H38.0868V14.3571H36.9082V13.1786ZM36.9082 12H38.0868V13.1786H36.9082V12ZM40.4439 8.46429H41.6225V9.64286H40.4439V8.46429ZM39.2653 7.28571H40.4439V8.46429H39.2653V7.28571ZM49.8725 9.64286H51.0511V10.8214H49.8725V9.64286ZM49.8725 10.8214H51.0511V12H49.8725V10.8214ZM48.6939 10.8214H49.8725V12H48.6939V10.8214ZM48.6939 9.64286H49.8725V10.8214H48.6939V9.64286ZM47.5153 10.8214H48.6939V12H47.5153V10.8214ZM47.5153 9.64286H48.6939V10.8214H47.5153V9.64286ZM46.3368 9.64286H47.5153V10.8214H46.3368V9.64286ZM46.3368 8.46429H47.5153V9.64286H46.3368V8.46429ZM46.3368 7.28571H47.5153V8.46429H46.3368V7.28571ZM46.3368 6.10714H47.5153V7.28571H46.3368V6.10714ZM46.3368 4.92857H47.5153V6.10714H46.3368V4.92857ZM46.3368 3.75H47.5153V4.92857H46.3368V3.75ZM47.5153 7.28571H48.6939V8.46429H47.5153V7.28571ZM47.5153 8.46429H48.6939V9.64286H47.5153V8.46429ZM47.5153 6.10714H48.6939V7.28571H47.5153V6.10714ZM47.5153 4.92857H48.6939V6.10714H47.5153V4.92857ZM47.5153 0.214286H48.6939V1.39286H47.5153V0.214286ZM47.5153 1.39286H48.6939V2.57143H47.5153V1.39286ZM47.5153 2.57143H48.6939V3.75H47.5153V2.57143ZM47.5153 3.75H48.6939V4.92857H47.5153V3.75ZM46.3368 2.57143H47.5153V3.75H46.3368V2.57143ZM45.1582 3.75H46.3368V4.92857H45.1582V3.75ZM48.6939 3.75H49.8725V4.92857H48.6939V3.75ZM49.8725 3.75H51.0511V4.92857H49.8725V3.75ZM46.3368 1.39286H47.5153V2.57143H46.3368V1.39286ZM45.1582 4.92857H46.3368V6.10714H45.1582V4.92857ZM48.6939 4.92857H49.8725V6.10714H48.6939V4.92857ZM49.8725 4.92857H51.0511V6.10714H49.8725V4.92857ZM54.5837 2.57143H55.7623V3.75H54.5837V2.57143ZM53.4051 2.57143H54.5837V3.75H53.4051V2.57143ZM53.4051 3.75H54.5837V4.92857H53.4051V3.75ZM54.5837 3.75H55.7623V4.92857H54.5837V3.75ZM55.7623 2.57143H56.9408V3.75H55.7623V2.57143ZM56.9408 2.57143H58.1194V3.75H56.9408V2.57143ZM58.1194 2.57143H59.298V3.75H58.1194V2.57143ZM58.1194 3.75H59.298V4.92857H58.1194V3.75ZM56.9408 3.75H58.1194V4.92857H56.9408V3.75ZM59.298 3.75H60.4766V4.92857H59.298V3.75ZM59.298 4.92857H60.4766V6.10714H59.298V4.92857ZM59.298 9.64286H60.4766V10.8214H59.298V9.64286ZM58.1194 9.64286H59.298V10.8214H58.1194V9.64286ZM58.1194 4.92857H59.298V6.10714H58.1194V4.92857ZM56.9408 9.64286H58.1194V10.8214H56.9408V9.64286ZM58.1194 10.8214H59.298V12H58.1194V10.8214ZM56.9408 10.8214H58.1194V12H56.9408V10.8214ZM55.7623 10.8214H56.9408V12H55.7623V10.8214ZM54.5837 10.8214H55.7623V12H54.5837V10.8214ZM53.4051 10.8214H54.5837V12H53.4051V10.8214ZM53.4051 9.64286H54.5837V10.8214H53.4051V9.64286ZM54.5837 9.64286H55.7623V10.8214H54.5837V9.64286ZM53.4051 8.46429H54.5837V9.64286H53.4051V8.46429ZM52.2266 9.64286H53.4051V10.8214H52.2266V9.64286ZM52.2266 8.46429H53.4051V9.64286H52.2266V8.46429ZM52.2266 7.28571H53.4051V8.46429H52.2266V7.28571ZM52.2266 6.10714H53.4051V7.28571H52.2266V6.10714ZM52.2266 4.92857H53.4051V6.10714H52.2266V4.92857ZM52.2266 3.75H53.4051V4.92857H52.2266V3.75ZM53.4051 4.92857H54.5837V6.10714H53.4051V4.92857ZM53.4051 6.10714H54.5837V7.28571H53.4051V6.10714ZM53.4051 7.28571H54.5837V8.46429H53.4051V7.28571ZM55.7623 9.64286H56.9408V10.8214H55.7623V9.64286ZM55.7623 3.75H56.9408V4.92857H55.7623V3.75ZM58.1194 6.10714H59.298V7.28571H58.1194V6.10714ZM59.298 6.10714H60.4766V7.28571H59.298V6.10714ZM54.5837 7.28571H55.7623V8.46429H54.5837V7.28571ZM55.7623 7.28571H56.9408V8.46429H55.7623V7.28571ZM56.9408 7.28571H58.1194V8.46429H56.9408V7.28571ZM58.1194 7.28571H59.298V8.46429H58.1194V7.28571ZM59.298 7.28571H60.4766V8.46429H59.298V7.28571ZM56.9408 6.10714H58.1194V7.28571H56.9408V6.10714ZM55.7623 6.10714H56.9408V7.28571H55.7623V6.10714ZM54.5837 6.10714H55.7623V7.28571H54.5837V6.10714Z" fill="#49BFAB"/>
</svg>
